<svg xmlns="http://www.w3.org/2000/svg" width="46.846" height="61.5" viewBox="0 0 46.846 61.5">
  <g id="pin" transform="translate(-61)">
    <g id="Group_780" data-name="Group 780" transform="translate(61)">
      <g id="Group_779" data-name="Group 779">
        <path id="Path_526" data-name="Path 526" d="M84.423,0A23.45,23.45,0,0,0,61,23.423a23.213,23.213,0,0,0,4.673,14.042L82.979,60.773c.043.056.109.078.157.129a1.743,1.743,0,0,0,2.729-.129C90.849,54.124,99.984,41.7,103.5,37.02l0-.006.022-.029A23.423,23.423,0,0,0,84.423,0Zm0,36.059A12.636,12.636,0,1,1,97.059,23.423,12.669,12.669,0,0,1,84.423,36.059Z" transform="translate(-61)" fill="#1a2e35"/>
      </g>
    </g>
  </g>
</svg>
