<svg xmlns="http://www.w3.org/2000/svg" width="23.613" height="31" viewBox="0 0 23.613 31">
  <g id="pin" transform="translate(-61)">
    <g id="Group_780" data-name="Group 780" transform="translate(61)">
      <g id="Group_779" data-name="Group 779">
        <path id="Path_526" data-name="Path 526" d="M72.807,0A11.82,11.82,0,0,0,61,11.807a11.7,11.7,0,0,0,2.355,7.078l8.724,11.749c.022.028.055.039.079.065a.879.879,0,0,0,1.376-.065c2.512-3.352,7.117-9.612,8.887-11.973v0l.011-.015A11.807,11.807,0,0,0,72.807,0Zm0,18.176a6.37,6.37,0,1,1,6.37-6.37A6.386,6.386,0,0,1,72.807,18.176Z" transform="translate(-61)" fill="#1a2e35"/>
      </g>
    </g>
  </g>
</svg>
